# xmcd
#
# Track frame offsets: 
#        151
#        19460
#        32031
#        48756
#        67429
#        82336
#        101143
#        118580
#        132507
#        151488
#        170511
#        187506
#
# Disc length: 2690 seconds
#
# Revision: 0
# Processed by: cddbd v1.5.1PL2 Copyright (c) Steve Scherf et al.
# Submitted via: ExactAudioCopy v0.95b4
#
DISCID=a90a800c
DTITLE=ลูกแพร-ไหมไทย - แพรไหม..ตลับทอง
DYEAR=2003
DGENRE=Country
TTITLE0=น้ำตาเจ้าน้อย
TTITLE1=ตอนจบพระเอก
TTITLE2=ล้างแค้นด้วยน้ำตา
TTITLE3=ให้เขาเป็นคนสุดท้าย
TTITLE4=วิตามินกินใจ
TTITLE5=อยากโชว์
TTITLE6=อดีตรักไหปลาแดก
TTITLE7=คนสวยใจดำ
TTITLE8=แยกทางเพราะห่างเหิน
TTITLE9=เทื่อเดียว
TTITLE10=โทรศัพท์ข่าวร้าย
TTITLE11=พี่มากี่คน
EXTD=
EXTT0=
EXTT1=
EXTT2=
EXTT3=
EXTT4=
EXTT5=
EXTT6=
EXTT7=
EXTT8=
EXTT9=
EXTT10=
EXTT11=
PLAYORDER=
